<mxfile host="65bd71144e">
    <diagram id="iaKQWRUasyrkga42Dfx9" name="Page-1">
        <mxGraphModel dx="1594" dy="485" grid="1" gridSize="10" guides="1" tooltips="1" connect="1" arrows="1" fold="1" page="1" pageScale="1" pageWidth="850" pageHeight="1100" math="0" shadow="0">
            <root>
                <mxCell id="0"/>
                <mxCell id="1" parent="0"/>
                <mxCell id="11" value="" style="rounded=1;dashed=1;dashPattern=8 8;fontFamily=Helvetica;fontSize=15;" parent="1" vertex="1">
                    <mxGeometry x="650" width="200" height="449" as="geometry"/>
                </mxCell>
                <mxCell id="2" value="Sink" style="shape=trapezoid;perimeter=trapezoidPerimeter;fixedSize=1;fillColor=#ffe6cc;strokeColor=#d79b00;fontFamily=Helvetica;fontSize=15;" parent="1" vertex="1">
                    <mxGeometry x="684" y="199" width="120" height="60" as="geometry"/>
                </mxCell>
                <mxCell id="4" value="Converter" style="rounded=0;fillColor=#dae8fc;strokeColor=#6c8ebf;fontFamily=Helvetica;fontSize=15;" parent="1" vertex="1">
                    <mxGeometry x="684" y="109" width="120" height="60" as="geometry"/>
                </mxCell>
                <mxCell id="5" value="Bus" style="ellipse;fillColor=#f5f5f5;fontColor=#333333;strokeColor=#666666;fontFamily=Helvetica;fontSize=15;" parent="1" vertex="1">
                    <mxGeometry x="684" y="279" width="120" height="80" as="geometry"/>
                </mxCell>
                <mxCell id="7" value="" style="group;fontFamily=Helvetica;fontSize=15;" parent="1" vertex="1" connectable="0">
                    <mxGeometry x="684" y="19" width="120" height="60" as="geometry"/>
                </mxCell>
                <mxCell id="3" value="" style="shape=trapezoid;perimeter=trapezoidPerimeter;fixedSize=1;rotation=-180;align=center;labelPosition=center;verticalLabelPosition=middle;verticalAlign=middle;fillColor=#d5e8d4;strokeColor=#82b366;fontFamily=Helvetica;fontSize=15;" parent="7" vertex="1">
                    <mxGeometry x="1" width="120" height="60" as="geometry"/>
                </mxCell>
                <mxCell id="6" value="Source" style="text;strokeColor=none;fillColor=none;align=center;verticalAlign=middle;rounded=0;fontFamily=Helvetica;fontSize=15;" parent="7" vertex="1">
                    <mxGeometry x="30" y="15" width="60" height="30" as="geometry"/>
                </mxCell>
                <mxCell id="8" value="" style="endArrow=classic;fontFamily=Helvetica;fontSize=15;" parent="1" edge="1">
                    <mxGeometry width="50" height="50" relative="1" as="geometry">
                        <mxPoint x="704" y="379" as="sourcePoint"/>
                        <mxPoint x="794" y="379" as="targetPoint"/>
                    </mxGeometry>
                </mxCell>
                <mxCell id="9" value="" style="endArrow=classic;startArrow=classic;fontFamily=Helvetica;fontSize=15;" parent="1" edge="1">
                    <mxGeometry width="50" height="50" relative="1" as="geometry">
                        <mxPoint x="704" y="419" as="sourcePoint"/>
                        <mxPoint x="794" y="419" as="targetPoint"/>
                    </mxGeometry>
                </mxCell>
                <mxCell id="12" value="Connection" style="text;align=center;verticalAlign=middle;resizable=0;points=[];autosize=1;strokeColor=none;fillColor=none;dashed=1;dashPattern=8 8;fontFamily=Helvetica;fontSize=15;" parent="1" vertex="1">
                    <mxGeometry x="702" y="389" width="100" height="30" as="geometry"/>
                </mxCell>
                <mxCell id="14" value="" style="group;fontFamily=Helvetica;fontSize=15;" parent="1" vertex="1" connectable="0">
                    <mxGeometry x="350" y="14" width="120" height="60" as="geometry"/>
                </mxCell>
                <mxCell id="15" value="" style="shape=trapezoid;perimeter=trapezoidPerimeter;fixedSize=1;rotation=-180;align=center;labelPosition=center;verticalLabelPosition=middle;verticalAlign=middle;fillColor=#d5e8d4;strokeColor=#82b366;fontFamily=Helvetica;fontSize=15;" parent="14" vertex="1">
                    <mxGeometry x="1" width="120" height="60" as="geometry"/>
                </mxCell>
                <mxCell id="16" value="PV" style="text;strokeColor=none;fillColor=none;align=center;verticalAlign=middle;rounded=0;fontFamily=Helvetica;fontSize=15;" parent="14" vertex="1">
                    <mxGeometry x="30" y="15" width="60" height="30" as="geometry"/>
                </mxCell>
                <mxCell id="17" value="" style="group;fontFamily=Helvetica;fontSize=15;" parent="1" vertex="1" connectable="0">
                    <mxGeometry x="492" y="14" width="120" height="60" as="geometry"/>
                </mxCell>
                <mxCell id="18" value="" style="shape=trapezoid;perimeter=trapezoidPerimeter;fixedSize=1;rotation=-180;align=center;labelPosition=center;verticalLabelPosition=middle;verticalAlign=middle;fillColor=#d5e8d4;strokeColor=#82b366;fontFamily=Helvetica;fontSize=15;" parent="17" vertex="1">
                    <mxGeometry x="1" width="120" height="60" as="geometry"/>
                </mxCell>
                <mxCell id="19" value="Wind" style="text;strokeColor=none;fillColor=none;align=center;verticalAlign=middle;rounded=0;fontFamily=Helvetica;fontSize=15;" parent="17" vertex="1">
                    <mxGeometry x="30" y="15" width="60" height="30" as="geometry"/>
                </mxCell>
                <mxCell id="21" value="" style="group;fontFamily=Helvetica;fontSize=15;" parent="1" vertex="1" connectable="0">
                    <mxGeometry x="-181" y="19" width="120" height="60" as="geometry"/>
                </mxCell>
                <mxCell id="22" value="" style="shape=trapezoid;perimeter=trapezoidPerimeter;fixedSize=1;rotation=-180;align=center;labelPosition=center;verticalLabelPosition=middle;verticalAlign=middle;fillColor=#d5e8d4;strokeColor=#82b366;fontFamily=Helvetica;fontSize=15;" parent="21" vertex="1">
                    <mxGeometry x="1" width="120" height="60" as="geometry"/>
                </mxCell>
                <mxCell id="23" value="Gas" style="text;strokeColor=none;fillColor=none;align=center;verticalAlign=middle;rounded=0;fontFamily=Helvetica;fontSize=15;" parent="21" vertex="1">
                    <mxGeometry x="30" y="15" width="60" height="30" as="geometry"/>
                </mxCell>
                <mxCell id="26" value="" style="group;fontFamily=Helvetica;fontSize=15;" parent="1" vertex="1" connectable="0">
                    <mxGeometry x="200" y="20" width="120" height="60" as="geometry"/>
                </mxCell>
                <mxCell id="27" value="" style="shape=trapezoid;perimeter=trapezoidPerimeter;fixedSize=1;rotation=-180;align=center;labelPosition=center;verticalLabelPosition=middle;verticalAlign=middle;fillColor=#d5e8d4;strokeColor=#82b366;fontFamily=Helvetica;fontSize=15;" parent="26" vertex="1">
                    <mxGeometry x="4" y="-3" width="120" height="60" as="geometry"/>
                </mxCell>
                <mxCell id="28" value="import from&#10;Grid" style="text;strokeColor=none;fillColor=none;align=center;verticalAlign=middle;rounded=0;fontFamily=Helvetica;fontSize=15;" parent="26" vertex="1">
                    <mxGeometry x="30" y="15" width="60" height="30" as="geometry"/>
                </mxCell>
                <mxCell id="29" value="ElectricÂ &#10;Demand" style="shape=trapezoid;perimeter=trapezoidPerimeter;fixedSize=1;fillColor=#ffe6cc;strokeColor=#d79b00;fontFamily=Helvetica;fontSize=15;" parent="1" vertex="1">
                    <mxGeometry x="295" y="496" width="120" height="60" as="geometry"/>
                </mxCell>
                <mxCell id="30" value="Heat&#10;Demand" style="shape=trapezoid;perimeter=trapezoidPerimeter;fixedSize=1;fillColor=#ffe6cc;strokeColor=#d79b00;fontFamily=Helvetica;fontSize=15;" parent="1" vertex="1">
                    <mxGeometry x="-181" y="495" width="120" height="60" as="geometry"/>
                </mxCell>
                <mxCell id="31" value="export&#10;to&#10;Grid" style="shape=trapezoid;perimeter=trapezoidPerimeter;fixedSize=1;fillColor=#ffe6cc;strokeColor=#d79b00;fontFamily=Helvetica;fontSize=15;" parent="1" vertex="1">
                    <mxGeometry x="500" y="495" width="120" height="60" as="geometry"/>
                </mxCell>
                <mxCell id="86" value="" style="edgeStyle=none;entryX=0.5;entryY=0;entryDx=0;entryDy=0;" parent="1" source="32" target="29" edge="1">
                    <mxGeometry relative="1" as="geometry"/>
                </mxCell>
                <mxCell id="32" value="Electric&#10;Bus" style="ellipse;fillColor=#f5f5f5;fontColor=#333333;strokeColor=#666666;fontFamily=Helvetica;fontSize=15;" parent="1" vertex="1">
                    <mxGeometry x="295" y="325" width="120" height="80" as="geometry"/>
                </mxCell>
                <mxCell id="65" value="" style="edgeStyle=orthogonalEdgeStyle;exitX=0.5;exitY=1;exitDx=0;exitDy=0;entryX=0.5;entryY=0;entryDx=0;entryDy=0;fontFamily=Helvetica;fontSize=15;" parent="1" source="33" target="30" edge="1">
                    <mxGeometry relative="1" as="geometry"/>
                </mxCell>
                <mxCell id="33" value="Thermal&#10;Bus" style="ellipse;fillColor=#f5f5f5;fontColor=#333333;strokeColor=#666666;fontFamily=Helvetica;fontSize=15;" parent="1" vertex="1">
                    <mxGeometry x="-181" y="346" width="120" height="80" as="geometry"/>
                </mxCell>
                <mxCell id="60" value="" style="edgeStyle=orthogonalEdgeStyle;entryX=1;entryY=0;entryDx=0;entryDy=0;fontFamily=Helvetica;fontSize=15;" parent="1" target="33" edge="1">
                    <mxGeometry relative="1" as="geometry">
                        <mxPoint x="-22" y="333" as="sourcePoint"/>
                    </mxGeometry>
                </mxCell>
                <mxCell id="34" value="Heatpump" style="rounded=0;fillColor=#dae8fc;strokeColor=#6c8ebf;fontFamily=Helvetica;fontSize=15;" parent="1" vertex="1">
                    <mxGeometry x="-10" y="303" width="120" height="60" as="geometry"/>
                </mxCell>
                <mxCell id="61" value="" style="edgeStyle=orthogonalEdgeStyle;exitX=0;exitY=0.5;exitDx=0;exitDy=0;entryX=1;entryY=1;entryDx=0;entryDy=0;fontFamily=Helvetica;fontSize=15;" parent="1" target="33" edge="1">
                    <mxGeometry relative="1" as="geometry">
                        <mxPoint x="-22" y="438" as="sourcePoint"/>
                    </mxGeometry>
                </mxCell>
                <mxCell id="37" value="Heating Element" style="rounded=0;fillColor=#dae8fc;strokeColor=#6c8ebf;fontFamily=Helvetica;fontSize=15;" parent="1" vertex="1">
                    <mxGeometry x="-10" y="408" width="120" height="60" as="geometry"/>
                </mxCell>
                <mxCell id="64" value="" style="edgeStyle=orthogonalEdgeStyle;exitX=0.5;exitY=1;exitDx=0;exitDy=0;entryX=0.5;entryY=0;entryDx=0;entryDy=0;fontFamily=Helvetica;fontSize=15;" parent="1" source="38" target="31" edge="1">
                    <mxGeometry relative="1" as="geometry"/>
                </mxCell>
                <mxCell id="66" value="" style="edgeStyle=orthogonalEdgeStyle;exitX=0;exitY=0.5;exitDx=0;exitDy=0;entryX=1;entryY=0.5;entryDx=0;entryDy=0;fontFamily=Helvetica;fontSize=15;" parent="1" source="38" target="46" edge="1">
                    <mxGeometry relative="1" as="geometry"/>
                </mxCell>
                <mxCell id="38" value="Renewable&#10;Electric &#10;Bus" style="ellipse;fillColor=#f5f5f5;fontColor=#333333;strokeColor=#666666;fontFamily=Helvetica;fontSize=15;" parent="1" vertex="1">
                    <mxGeometry x="500" y="197" width="120" height="80" as="geometry"/>
                </mxCell>
                <mxCell id="42" value="" style="edgeStyle=orthogonalEdgeStyle;entryX=1;entryY=0;entryDx=0;entryDy=0;fontFamily=Helvetica;fontSize=15;" parent="1" source="18" target="38" edge="1">
                    <mxGeometry relative="1" as="geometry"/>
                </mxCell>
                <mxCell id="44" value="" style="edgeStyle=orthogonalEdgeStyle;entryX=0;entryY=0;entryDx=0;entryDy=0;fontFamily=Helvetica;fontSize=15;exitX=0.5;exitY=0;exitDx=0;exitDy=0;" parent="1" source="15" target="38" edge="1">
                    <mxGeometry relative="1" as="geometry">
                        <mxPoint x="246" y="94" as="sourcePoint"/>
                        <Array as="points">
                            <mxPoint x="411" y="130"/>
                            <mxPoint x="518" y="130"/>
                        </Array>
                    </mxGeometry>
                </mxCell>
                <mxCell id="102" value="" style="edgeStyle=orthogonalEdgeStyle;entryX=1;entryY=0.5;entryDx=0;entryDy=0;" parent="1" source="46" target="84" edge="1">
                    <mxGeometry relative="1" as="geometry">
                        <Array as="points">
                            <mxPoint x="230" y="238"/>
                            <mxPoint x="230" y="147"/>
                        </Array>
                    </mxGeometry>
                </mxCell>
                <mxCell id="103" value="" style="edgeStyle=orthogonalEdgeStyle;entryX=1;entryY=0.5;entryDx=0;entryDy=0;" parent="1" source="46" target="32" edge="1">
                    <mxGeometry relative="1" as="geometry">
                        <Array as="points">
                            <mxPoint x="455" y="365"/>
                        </Array>
                    </mxGeometry>
                </mxCell>
                <mxCell id="46" value="1:1" style="rounded=0;fillColor=#dae8fc;strokeColor=#6c8ebf;fontFamily=Helvetica;fontSize=15;" parent="1" vertex="1">
                    <mxGeometry x="440" y="207.5" width="30" height="60" as="geometry"/>
                </mxCell>
                <mxCell id="78" value="" style="edgeStyle=orthogonalEdgeStyle;exitX=0.5;exitY=1;exitDx=0;exitDy=0;entryX=0.5;entryY=0;entryDx=0;entryDy=0;fontFamily=Helvetica;fontSize=15;startArrow=none;startFill=0;" parent="1" source="69" target="76" edge="1">
                    <mxGeometry relative="1" as="geometry">
                        <mxPoint x="-121" y="205" as="sourcePoint"/>
                    </mxGeometry>
                </mxCell>
                <mxCell id="69" value="Gas&#10;Bus" style="ellipse;fillColor=#f5f5f5;fontColor=#333333;strokeColor=#666666;fontFamily=Helvetica;fontSize=15;" parent="1" vertex="1">
                    <mxGeometry x="-181" y="110" width="120" height="80" as="geometry"/>
                </mxCell>
                <mxCell id="75" value="" style="edgeStyle=orthogonalEdgeStyle;entryX=0;entryY=0.5;entryDx=0;entryDy=0;fontFamily=Helvetica;fontSize=15;startArrow=classic;startFill=1;exitX=1;exitY=0.5;exitDx=0;exitDy=0;" parent="1" source="73" target="33" edge="1">
                    <mxGeometry relative="1" as="geometry">
                        <mxPoint x="-241" y="386" as="sourcePoint"/>
                    </mxGeometry>
                </mxCell>
                <mxCell id="73" value="Seasonal Storage" style="rounded=0;fillColor=#dae8fc;strokeColor=#6c8ebf;fontFamily=Helvetica;fontSize=15;" parent="1" vertex="1">
                    <mxGeometry x="-352" y="356" width="120" height="60" as="geometry"/>
                </mxCell>
                <mxCell id="79" value="" style="edgeStyle=orthogonalEdgeStyle;entryX=0.5;entryY=0;entryDx=0;entryDy=0;fontFamily=Helvetica;fontSize=15;startArrow=none;startFill=0;" parent="1" source="76" target="33" edge="1">
                    <mxGeometry relative="1" as="geometry"/>
                </mxCell>
                <mxCell id="90" value="" style="edgeStyle=orthogonalEdgeStyle;exitX=1;exitY=0.5;exitDx=0;exitDy=0;entryX=0;entryY=0.5;entryDx=0;entryDy=0;" parent="1" source="76" target="87" edge="1">
                    <mxGeometry relative="1" as="geometry"/>
                </mxCell>
                <mxCell id="76" value="CHP" style="rounded=0;fillColor=#dae8fc;strokeColor=#6c8ebf;fontFamily=Helvetica;fontSize=15;" parent="1" vertex="1">
                    <mxGeometry x="-181" y="210" width="120" height="60" as="geometry"/>
                </mxCell>
                <mxCell id="77" value="" style="edgeStyle=orthogonalEdgeStyle;exitX=0.5;exitY=0;exitDx=0;exitDy=0;entryX=0.5;entryY=0;entryDx=0;entryDy=0;fontFamily=Helvetica;fontSize=15;startArrow=none;startFill=0;" parent="1" source="22" edge="1">
                    <mxGeometry relative="1" as="geometry">
                        <mxPoint x="-121" y="109" as="targetPoint"/>
                    </mxGeometry>
                </mxCell>
                <mxCell id="80" value="" style="group;fontFamily=Helvetica;fontSize=15;" parent="1" vertex="1" connectable="0">
                    <mxGeometry x="61" y="19" width="120" height="60" as="geometry"/>
                </mxCell>
                <mxCell id="81" value="" style="shape=trapezoid;perimeter=trapezoidPerimeter;fixedSize=1;rotation=-180;align=center;labelPosition=center;verticalLabelPosition=middle;verticalAlign=middle;fillColor=#d5e8d4;strokeColor=#82b366;fontFamily=Helvetica;fontSize=15;" parent="80" vertex="1">
                    <mxGeometry x="4" y="-3" width="120" height="60" as="geometry"/>
                </mxCell>
                <mxCell id="82" value="import from&#10;Â Grid&#10;Â heatpump" style="text;strokeColor=none;fillColor=none;align=center;verticalAlign=middle;rounded=0;fontFamily=Helvetica;fontSize=15;" parent="80" vertex="1">
                    <mxGeometry x="30" y="15" width="60" height="30" as="geometry"/>
                </mxCell>
                <mxCell id="83" value="export&#10;to&#10;Grid CHP" style="shape=trapezoid;perimeter=trapezoidPerimeter;fixedSize=1;fillColor=#ffe6cc;strokeColor=#d79b00;fontFamily=Helvetica;fontSize=15;" parent="1" vertex="1">
                    <mxGeometry x="150" y="495" width="120" height="60" as="geometry"/>
                </mxCell>
                <mxCell id="88" value="" style="edgeStyle=orthogonalEdgeStyle;entryX=1;entryY=0.5;entryDx=0;entryDy=0;exitX=0.5;exitY=1;exitDx=0;exitDy=0;" parent="1" source="84" target="34" edge="1">
                    <mxGeometry relative="1" as="geometry"/>
                </mxCell>
                <mxCell id="89" value="" style="edgeStyle=orthogonalEdgeStyle;entryX=1;entryY=0.5;entryDx=0;entryDy=0;" parent="1" source="84" target="37" edge="1">
                    <mxGeometry relative="1" as="geometry"/>
                </mxCell>
                <mxCell id="84" value="Electric&#10;Bus&#10;heatpump" style="ellipse;fillColor=#f5f5f5;fontColor=#333333;strokeColor=#666666;fontFamily=Helvetica;fontSize=15;" parent="1" vertex="1">
                    <mxGeometry x="65" y="107" width="120" height="80" as="geometry"/>
                </mxCell>
                <mxCell id="85" value="" style="edgeStyle=none;exitX=0.5;exitY=0;exitDx=0;exitDy=0;" parent="1" source="81" target="84" edge="1">
                    <mxGeometry relative="1" as="geometry">
                        <mxPoint x="125" y="80" as="sourcePoint"/>
                    </mxGeometry>
                </mxCell>
                <mxCell id="91" value="" style="edgeStyle=orthogonalEdgeStyle;entryX=0.5;entryY=0;entryDx=0;entryDy=0;" parent="1" source="87" target="83" edge="1">
                    <mxGeometry relative="1" as="geometry"/>
                </mxCell>
                <mxCell id="96" value="" style="edgeStyle=orthogonalEdgeStyle;exitX=0.5;exitY=1;exitDx=0;exitDy=0;entryX=0;entryY=0.5;entryDx=0;entryDy=0;" parent="1" source="87" target="94" edge="1">
                    <mxGeometry relative="1" as="geometry"/>
                </mxCell>
                <mxCell id="99" value="" style="edgeStyle=orthogonalEdgeStyle;exitX=0.5;exitY=0;exitDx=0;exitDy=0;entryX=0.5;entryY=1;entryDx=0;entryDy=0;" parent="1" source="87" target="98" edge="1">
                    <mxGeometry relative="1" as="geometry"/>
                </mxCell>
                <mxCell id="87" value="konventional&#10;Electric&#10;Bus" style="ellipse;fillColor=#f5f5f5;fontColor=#333333;strokeColor=#666666;fontFamily=Helvetica;fontSize=15;" parent="1" vertex="1">
                    <mxGeometry x="-28" y="199" width="120" height="80" as="geometry"/>
                </mxCell>
                <mxCell id="97" value="" style="edgeStyle=orthogonalEdgeStyle;entryX=0;entryY=0.5;entryDx=0;entryDy=0;" parent="1" source="94" target="32" edge="1">
                    <mxGeometry relative="1" as="geometry"/>
                </mxCell>
                <mxCell id="94" value="1:1" style="rounded=0;fillColor=#dae8fc;strokeColor=#6c8ebf;fontFamily=Helvetica;fontSize=15;" parent="1" vertex="1">
                    <mxGeometry x="151" y="261.5" width="30" height="60" as="geometry"/>
                </mxCell>
                <mxCell id="100" value="" style="edgeStyle=orthogonalEdgeStyle;" parent="1" source="98" target="84" edge="1">
                    <mxGeometry relative="1" as="geometry"/>
                </mxCell>
                <mxCell id="98" value="1:1" style="rounded=0;fillColor=#dae8fc;strokeColor=#6c8ebf;fontFamily=Helvetica;fontSize=15;" parent="1" vertex="1">
                    <mxGeometry x="17" y="117" width="30" height="60" as="geometry"/>
                </mxCell>
                <mxCell id="101" value="" style="edgeStyle=orthogonalEdgeStyle;entryX=0.5;entryY=0;entryDx=0;entryDy=0;exitX=0.5;exitY=0;exitDx=0;exitDy=0;" parent="1" source="27" target="32" edge="1">
                    <mxGeometry relative="1" as="geometry">
                        <mxPoint x="260" y="80" as="sourcePoint"/>
                        <Array as="points">
                            <mxPoint x="264" y="150"/>
                            <mxPoint x="355" y="150"/>
                        </Array>
                    </mxGeometry>
                </mxCell>
                <mxCell id="105" value="" style="edgeStyle=orthogonalEdgeStyle;entryX=1;entryY=1;entryDx=0;entryDy=0;exitX=0;exitY=0.5;exitDx=0;exitDy=0;startArrow=classic;startFill=1;" parent="1" source="104" target="32" edge="1">
                    <mxGeometry relative="1" as="geometry"/>
                </mxCell>
                <mxCell id="104" value="Battery Storage" style="rounded=0;fillColor=#dae8fc;strokeColor=#6c8ebf;fontFamily=Helvetica;fontSize=15;" parent="1" vertex="1">
                    <mxGeometry x="414" y="408" width="120" height="60" as="geometry"/>
                </mxCell>
            </root>
        </mxGraphModel>
    </diagram>
</mxfile>